PathFileType  4	(X/Y/Z) C:\Users\antoi\Documents\MyRepositories\mobilecap\ResultsAnalysis
DataRate	CameraRate	NumFrames	NumMarkers	Units	OrigDataRate	OrigDataStartFrame	OrigNumFrames
100.0	100.0	7	51	mm	100.0	82	131
Frame#	Time	r_knee			r_shank_antsup			r_ankle			r_calc			r_5meta			r_toe			L_knee			L_shank_antsup			L_ankle			L_calc			L_5meta			L_toe			r_sh2			r_sh3			r_sh4			L_sh2			L_sh3			r_thigh1			r_thigh2			r_thigh3			r_thigh4			r_thigh5			L_thigh1			L_thigh2			L_thigh3			L_thigh4			r.ASIS			r.PSIS			L.ASIS			L.PSIS			C7			R_Shoulder			L_Shoulder			R_Sternum			L_Sternum			R_humerus			R_elbow_med			R_elbow_lat			R_forearm			R_wrist_radius			R_wrist_ulna			L_humerus			L_elbow_med			L_elbow_lat			L_forearm			L_wrist_radius			L_wrist_ulna			R_HJC			L_HJC			R_HJC_reg			L_HJC_reg			
		X1	Y1	Z1	X2	Y2	Z2	X3	Y3	Z3	X4	Y4	Z4	X5	Y5	Z5	X6	Y6	Z6	X7	Y7	Z7	X8	Y8	Z8	X9	Y9	Z9	X10	Y10	Z10	X11	Y11	Z11	X12	Y12	Z12	X13	Y13	Z13	X14	Y14	Z14	X15	Y15	Z15	X16	Y16	Z16	X17	Y17	Z17	X18	Y18	Z18	X19	Y19	Z19	X20	Y20	Z20	X21	Y21	Z21	X22	Y22	Z22	X23	Y23	Z23	X24	Y24	Z24	X25	Y25	Z25	X26	Y26	Z26	X27	Y27	Z27	X28	Y28	Z28	X29	Y29	Z29	X30	Y30	Z30	X31	Y31	Z31	X32	Y32	Z32	X33	Y33	Z33	X34	Y34	Z34	X35	Y35	Z35	X36	Y36	Z36	X37	Y37	Z37	X38	Y38	Z38	X39	Y39	Z39	X40	Y40	Z40	X41	Y41	Z41	X42	Y42	Z42	X43	Y43	Z43	X44	Y44	Z44	X45	Y45	Z45	X46	Y46	Z46	X47	Y47	Z47	X48	Y48	Z48	X49	Y49	Z49	X50	Y50	Z50	X51	Y51	Z51	

82	0.81000000	969.48052	503.92481	-89.01713	954.27534	403.45450	-100.58586	690.76677	214.63300	-126.78461	630.80542	233.86059	-184.27747	729.88391	91.78464	-83.80041	782.40386	92.45431	-131.10269	895.97711	496.84481	-362.78738	931.36828	410.12235	-339.98518	835.47560	94.17854	-319.26380	759.95489	51.49337	-274.70683	941.04321	39.26280	-352.05665	985.74233	65.31209	-292.55818	874.55401	322.34870	-108.01682	906.61830	447.14588	-62.79130	820.83363	371.05810	-66.53764	855.79358	425.57675	-389.83402	841.31977	306.47872	-388.21953	929.25156	783.46598	-71.20051	974.53961	682.65491	-76.77319	930.54364	635.57571	-52.27439	826.84271	734.87115	-64.44063	879.68612	632.98060	-77.15246	945.90566	748.66961	-390.91043	965.62099	613.63962	-357.53097	847.16932	724.22404	-432.36609	864.87562	596.82922	-394.15031	918.34226	966.09697	-115.48930	716.18678	990.31845	-208.86439	932.11959	969.97950	-369.84908	725.33494	995.57594	-303.54041	747.87908	1455.34378	-256.80076	801.45183	1429.53950	-87.09198	837.62595	1424.27548	-402.18990	875.05482	1386.77759	-221.02214	874.79176	1387.47109	-267.53943	833.56557	1300.30337	-28.29843	767.36421	1096.64795	-83.38260	764.50929	1106.97912	-14.95614	816.90945	1045.72367	15.56167	873.52949	881.96147	-3.56333	834.67242	882.66228	30.06601	878.53020	1288.96357	-457.89620	819.88139	1083.64585	-425.91275	844.57881	1099.69839	-499.99233	901.66544	1050.24524	-508.64953	966.95034	883.57968	-492.85905	934.70006	884.25006	-532.39958	840.11217	875.77257	-148.38049	852.99692	880.47526	-337.44053	849.71254	881.84955	-162.81234	865.85713	891.13131	-329.92255	
83	0.82000000	989.95583	508.91174	-89.88260	978.55197	407.89551	-100.21644	724.53627	205.83129	-125.81100	663.17840	220.51981	-183.14157	772.14890	86.50976	-81.71409	824.65195	90.69015	-129.06821	899.24461	496.85041	-363.06860	933.78815	409.87231	-340.34493	835.62527	94.18733	-319.23135	759.99220	51.55127	-274.71883	941.05759	39.21385	-352.10845	985.75750	65.13313	-292.60036	902.84676	323.20004	-107.16375	928.52589	449.74826	-63.37038	846.56335	369.75387	-66.57569	858.18847	425.82402	-390.06483	842.89302	306.87573	-388.39211	943.61718	787.40157	-71.33605	991.18886	687.82305	-77.14833	948.46151	639.74523	-52.21722	842.21716	736.63784	-63.98879	897.62598	635.98295	-76.85820	953.96510	747.87863	-391.25350	971.43311	612.53890	-357.92745	854.77055	725.07906	-432.46601	870.20922	597.48148	-394.11462	930.22802	968.74475	-116.73610	727.66367	992.13389	-209.23251	942.89334	970.91102	-371.11481	736.70425	996.84069	-303.99469	760.03185	1456.64503	-257.16550	813.04264	1430.38442	-87.33691	850.34621	1425.95507	-401.99051	886.91827	1387.75579	-220.99446	886.73718	1388.52765	-267.51768	844.16945	1300.83862	-28.70011	776.30871	1098.11152	-84.78021	773.09137	1108.32396	-16.29712	823.74746	1046.15970	14.73816	876.44166	880.89572	-3.71058	837.27380	882.67578	29.55749	893.39566	1291.69144	-457.07579	837.91659	1085.36329	-426.35770	863.89258	1101.91076	-499.86749	922.70966	1054.05935	-506.73051	993.02917	889.83867	-488.66676	961.66401	889.14143	-528.82065	852.01550	878.12080	-148.59901	864.05281	881.57764	-337.74362	861.28651	884.03292	-163.48775	877.23205	892.34032	-330.63024	
84	0.83000000	1009.55721	513.66899	-90.92489	1002.31437	412.28719	-99.88290	759.08361	196.44250	-124.84515	696.72021	206.31356	-182.12735	815.07174	81.32341	-79.52045	867.43625	89.07864	-126.83153	902.44937	496.88012	-363.39440	936.11522	409.63181	-340.87381	835.80205	94.23337	-319.23490	760.03761	51.56346	-274.66028	941.07683	39.16401	-352.16237	985.75974	64.92308	-292.66393	931.06845	323.94392	-106.31937	949.59255	451.94930	-64.15596	871.94343	367.94912	-66.77347	860.39511	426.13110	-390.28838	844.28273	307.36122	-388.55325	957.84937	791.03848	-71.50904	1007.52757	692.65267	-77.67550	966.02057	643.66234	-52.33333	857.41659	738.30392	-63.36942	915.10943	638.83929	-76.62463	961.97836	747.04982	-391.56374	977.27333	611.44385	-358.29888	862.42504	725.86145	-432.59172	875.63703	598.10507	-394.13666	941.97675	971.04529	-118.13086	739.18959	993.59509	-209.29329	953.67108	971.66628	-372.32587	748.04297	997.88646	-304.16644	772.17271	1457.73467	-257.52716	824.60210	1431.04853	-87.59880	862.94587	1427.52265	-401.82119	898.78279	1388.58566	-221.03097	898.73972	1389.45678	-267.54388	854.69926	1301.23692	-29.04159	785.21078	1099.39993	-86.05202	781.61711	1109.54571	-17.53175	830.58831	1046.55436	14.00179	879.45011	879.91433	-3.77533	840.06458	882.77584	29.12345	908.10257	1294.36919	-456.33598	855.91071	1087.07923	-426.80049	883.05990	1104.11905	-499.70854	943.48623	1057.93960	-504.83800	1018.79161	896.40790	-484.40591	988.36579	894.31738	-525.10068	863.96995	880.11108	-148.80326	875.03999	882.49065	-338.02532	872.93492	885.86661	-164.32095	888.52750	893.42865	-331.37452	
85	0.84000000	1028.26581	518.10465	-92.13409	1025.51608	416.55993	-99.64406	794.43269	186.70112	-123.89100	731.47784	191.54575	-181.25059	858.50177	76.45772	-77.23121	910.56398	87.74090	-124.42670	905.65087	496.91042	-363.73605	938.37992	409.38742	-341.51046	836.00225	94.30782	-319.25417	760.08861	51.53473	-274.52026	941.09547	39.11265	-352.21531	985.76950	64.69397	-292.74582	959.16781	324.57385	-105.55734	969.90876	453.63223	-65.10294	897.08542	365.58948	-67.08762	862.48967	426.47784	-390.49825	845.53334	307.89641	-388.69878	971.96601	794.33240	-71.71265	1023.50566	697.04931	-78.35483	983.11957	647.27180	-52.68113	872.41565	739.86327	-62.65142	932.07296	641.45857	-76.55376	969.95078	746.17452	-391.82149	983.14037	610.34049	-358.62823	870.12125	726.56252	-432.75088	881.17091	598.67990	-394.21860	953.60622	972.92461	-119.59374	750.76327	994.66775	-209.08920	964.46878	972.18472	-373.43286	759.33603	998.70998	-304.08031	784.32143	1458.60550	-257.88632	836.14588	1431.51658	-87.86950	875.44831	1428.92594	-401.69123	910.65343	1389.25030	-221.12762	910.78422	1390.23067	-267.61670	865.14218	1301.47212	-29.31485	794.10962	1100.46882	-87.20090	790.10449	1110.61286	-18.66533	837.44321	1046.86488	13.35369	882.57800	878.96560	-3.77341	843.09001	882.91985	28.76818	922.65681	1296.92394	-455.68314	873.83889	1088.73289	-427.27010	902.05623	1106.26086	-499.54803	963.98975	1061.82164	-503.01017	1044.22710	903.21176	-480.11282	1014.78059	899.71477	-521.28767	875.93505	881.68932	-148.97914	885.96384	883.16936	-338.26977	884.67500	887.24693	-165.25992	899.74146	894.35032	-332.12114	
86	0.85000000	1046.07294	522.09816	-93.48206	1048.08927	420.61317	-99.57160	830.57709	176.85585	-122.95547	767.43521	176.54303	-180.48261	902.30353	72.14732	-74.88869	953.81740	86.79292	-121.95771	908.90135	496.91413	-364.05635	940.61797	409.12958	-342.17129	836.22253	94.40350	-319.26845	760.14492	51.49487	-274.31258	941.10955	39.05925	-352.26358	985.81690	64.46629	-292.83918	987.07855	325.05255	-104.95871	989.59604	454.67138	-66.13674	922.11793	362.61993	-67.46169	864.55990	426.83688	-390.68721	846.71366	308.43660	-388.82467	985.98230	797.23710	-71.95741	1039.06775	700.91732	-79.19105	999.67578	650.53249	-53.28667	887.20038	741.30572	-61.89818	948.45025	643.77471	-76.68411	977.90090	745.24315	-391.99989	989.02426	609.21150	-358.88432	877.86354	727.16983	-432.94450	886.81175	599.18694	-394.34678	965.17197	974.34684	-121.02286	762.37520	995.34872	-208.67789	975.29217	972.43116	-374.40554	770.56901	999.32251	-303.77155	796.49639	1459.25522	-258.24206	847.69242	1431.77738	-88.14357	887.87871	1430.11552	-401.60585	922.53975	1389.73227	-221.27421	922.85734	1390.82335	-267.72944	875.49760	1301.52343	-29.51946	803.04090	1101.29019	-88.23194	798.56913	1111.50421	-19.70309	844.32238	1047.05469	12.79379	885.86118	878.01448	-3.72004	846.38197	883.06971	28.49511	937.07037	1299.28748	-455.12184	891.66590	1090.27139	-427.78543	920.87229	1108.27667	-499.41238	984.22626	1065.64848	-501.27509	1069.33669	910.16614	-475.81496	1040.88942	905.28642	-517.42625	887.88360	882.83765	-149.11020	896.83439	883.59039	-338.45997	896.52171	888.10596	-166.23217	910.88771	895.06691	-332.83992	
87	0.86000000	1062.98812	525.51815	-94.92039	1069.97291	424.33415	-99.73548	867.44990	167.15136	-122.05701	804.49980	161.62860	-179.77413	946.34736	68.60306	-72.56763	996.98170	86.35218	-119.57493	912.23812	496.86879	-364.32235	942.86839	408.85406	-342.77749	836.45887	94.51803	-319.26474	760.20963	51.49144	-274.07028	941.11801	39.00266	-352.30439	985.93028	64.26171	-292.93677	1014.73830	325.34252	-104.59470	1008.79847	454.97135	-67.17622	947.15486	359.02771	-67.84229	866.68609	427.18209	-390.85097	847.90412	308.94708	-388.92879	999.90133	799.69774	-72.27220	1054.16584	704.16327	-80.19012	1015.63837	653.39717	-54.13112	901.77142	742.60533	-61.15433	964.19223	645.75416	-76.97446	985.85612	744.24648	-392.07407	994.91305	608.04009	-359.03149	885.67360	727.66641	-433.17191	892.55583	599.60993	-394.49659	976.74612	975.30579	-122.31819	774.01229	995.65980	-208.12383	986.14304	972.39461	-375.23484	781.73317	999.73900	-303.28040	808.71214	1459.68103	-258.59148	859.26102	1431.82198	-88.41827	900.25963	1431.04890	-401.56681	934.45807	1390.01298	-221.45515	934.95044	1391.20866	-267.87200	885.77766	1301.37857	-29.66030	812.02663	1101.85739	-89.15235	807.02542	1112.20841	-20.65174	851.24248	1047.10164	12.31952	889.35339	877.04595	-3.62672	849.96098	883.19201	28.30261	951.36073	1301.40160	-454.65692	909.35560	1091.65380	-428.34925	939.51192	1110.11655	-499.31995	1004.20746	1069.37167	-499.64766	1094.12659	917.18686	-471.53095	1066.67407	910.99664	-513.55346	899.80177	883.56488	-149.18418	907.66637	883.74868	-338.58400	908.48123	888.41996	-167.15942	921.98789	895.54720	-333.50652	
88	0.87000000	1079.05123	528.24649	-96.38502	1091.14014	427.62213	-100.18292	904.91364	157.80948	-121.22627	842.50634	147.10334	-179.08372	990.48557	65.97705	-70.37307	1039.86521	86.53416	-117.44111	915.68351	496.76223	-364.51516	945.16933	408.56149	-343.27722	836.70611	94.65359	-319.24064	760.28763	51.57342	-273.83083	941.12294	38.94084	-352.33725	986.12274	64.09394	-293.03358	1042.09968	325.43313	-104.51015	1027.66547	454.49651	-68.15126	972.27196	354.86865	-68.18766	868.92632	427.49607	-390.99007	849.17743	309.41070	-389.01232	1013.71127	801.64989	-72.69594	1068.77305	706.70214	-81.35618	1030.99345	655.79022	-55.14778	916.13871	743.71330	-60.44087	979.28446	647.37886	-77.32398	993.84598	743.17601	-392.02970	1000.80481	606.81532	-359.04054	893.58008	728.03465	-433.43595	898.40150	599.93666	-394.64002	988.39289	975.81347	-123.40613	785.66587	995.63814	-207.49005	997.02547	972.08148	-375.93081	792.83046	999.96653	-302.64813	820.97886	1459.87629	-258.92981	870.87285	1431.64338	-88.69156	912.61071	1431.69212	-401.57211	946.42871	1390.07223	-221.65207	947.06268	1391.35937	-268.03332	896.00528	1301.03486	-29.74461	821.06985	1102.18502	-89.97161	815.48795	1112.72156	-21.51997	858.22810	1047.00078	11.92614	893.11901	876.06143	-3.49955	853.84093	883.25765	28.18069	965.54828	1303.22087	-454.29299	926.89106	1092.84854	-428.94592	957.98654	1111.74481	-499.27994	1023.94538	1072.95062	-498.12826	1118.59587	924.20192	-467.27405	1092.11293	916.81159	-509.69557	911.68734	883.89414	-149.19837	918.47901	883.64984	-338.63988	920.54740	888.21157	-167.97143	933.06071	895.76523	-334.10123	
